<svg width="20" height="21" viewBox="0 0 20 21" fill="none" xmlns="http://www.w3.org/2000/svg">
<path d="M4 4.5C4 3.39543 4.89543 2.5 6 2.5H10.5858C11.1162 2.5 11.6249 2.71071 12 3.08579L15.4142 6.5C15.7893 6.87507 16 7.38378 16 7.91421V16.5C16 17.6046 15.1046 18.5 14 18.5H12.4722C13.4223 17.4385 14 16.0367 14 14.5C14 11.1863 11.3137 8.5 8 8.5C6.46329 8.5 5.06151 9.07771 4 10.0278V4.5Z" fill="#757575"/>
<path fill-rule="evenodd" clip-rule="evenodd" d="M8 10.5C5.79086 10.5 4 12.2909 4 14.5C4 15.2414 4.20229 15.9364 4.55397 16.5318L3.29289 17.7929C2.90237 18.1834 2.90237 18.8166 3.29289 19.2071C3.68342 19.5976 4.31658 19.5976 4.70711 19.2071L5.96818 17.946C6.56362 18.2977 7.25862 18.5 8 18.5C10.2091 18.5 12 16.7091 12 14.5C12 12.2909 10.2091 10.5 8 10.5ZM6 14.5C6 13.3954 6.89543 12.5 8 12.5C9.10457 12.5 10 13.3954 10 14.5C10 15.6046 9.10457 16.5 8 16.5C7.44744 16.5 6.94881 16.2772 6.58579 15.9142C6.22276 15.5512 6 15.0526 6 14.5Z" fill="#757575"/>
</svg>
